<svg width="1600" height="1200" viewBox="0 0 1600 1200" xmlns="http://www.w3.org/2000/svg">
  <defs>
    <linearGradient id="gSky" x1="0" y1="0" x2="0" y2="1">
      <stop offset="0%" stop-color="#0b132a"></stop>
      <stop offset="100%" stop-color="#0a0f1a"></stop>
    </linearGradient>
    <linearGradient id="gGlow" x1="0" y1="0" x2="1" y2="1">
      <stop offset="0%" stop-color="rgba(56,189,248,0.35)"></stop>
      <stop offset="100%" stop-color="rgba(34,197,94,0.25)"></stop>
    </linearGradient>
    <linearGradient id="gGlass" x1="0" y1="0" x2="0" y2="1">
      <stop offset="0%" stop-color="#182235"></stop>
      <stop offset="100%" stop-color="#0e1626"></stop>
    </linearGradient>
  </defs>

  <!-- céu -->
  <rect width="1600" height="1200" fill="url(#gSky)"></rect>

  <!-- halos suaves -->
  <g opacity="0.45">
    <circle cx="1250" cy="200" r="320" fill="#38bdf84d"></circle>
    <circle cx="350" cy="260" r="260" fill="#22c55e40"></circle>
  </g>

  <!-- horizonte distante -->
  <g fill="#0f1b2e">
    <rect x="0" y="780" width="1600" height="20"></rect>
    <rect x="140" y="700" width="80" height="100"></rect>
    <rect x="210" y="660" width="120" height="140"></rect>
    <rect x="320" y="630" width="90" height="170"></rect>
    <rect x="410" y="680" width="150" height="120"></rect>
    <rect x="560" y="650" width="110" height="150"></rect>
    <rect x="690" y="610" width="160" height="190"></rect>
    <rect x="870" y="670" width="110" height="130"></rect>
    <rect x="990" y="640" width="140" height="160"></rect>
    <rect x="1140" y="600" width="170" height="200"></rect>
    <rect x="1320" y="660" width="120" height="140"></rect>
  </g>

  <!-- prédios médios -->
  <g fill="#122038">
    <rect x="80" y="560" width="130" height="240"></rect>
    <rect x="250" y="520" width="160" height="280"></rect>
    <rect x="450" y="540" width="120" height="260"></rect>
    <rect x="610" y="500" width="180" height="300"></rect>
    <rect x="820" y="520" width="150" height="280"></rect>
    <rect x="1000" y="540" width="130" height="260"></rect>
    <rect x="1150" y="490" width="190" height="310"></rect>
    <rect x="1370" y="520" width="150" height="280"></rect>
  </g>

  <!-- prédios próximos (com “vidros”) -->
  <g>
    <rect x="180" y="460" width="190" height="360" fill="url(#gGlass)"></rect>
    <rect x="420" y="480" width="220" height="340" fill="url(#gGlass)"></rect>
    <rect x="720" y="440" width="240" height="380" fill="url(#gGlass)"></rect>
    <rect x="1010" y="470" width="210" height="350" fill="url(#gGlass)"></rect>
    <rect x="1240" y="430" width="230" height="390" fill="url(#gGlass)"></rect>

    <!-- janelas -->
    <g fill="#90cdf4" opacity="0.25">
      <!-- bloco 1 -->
      <rect x="200" y="500" width="24" height="8"></rect><rect x="230" y="500" width="24" height="8"></rect>
      <rect x="260" y="500" width="24" height="8"></rect><rect x="290" y="500" width="24" height="8"></rect>
      <rect x="200" y="540" width="24" height="8"></rect><rect x="230" y="540" width="24" height="8"></rect>
      <rect x="260" y="540" width="24" height="8"></rect><rect x="290" y="540" width="24" height="8"></rect>
      <!-- repetições simples -->
      <rect x="450" y="520" width="24" height="8"></rect><rect x="480" y="520" width="24" height="8"></rect>
      <rect x="510" y="520" width="24" height="8"></rect><rect x="540" y="520" width="24" height="8"></rect>

      <rect x="750" y="480" width="24" height="8"></rect><rect x="780" y="480" width="24" height="8"></rect>
      <rect x="810" y="480" width="24" height="8"></rect><rect x="840" y="480" width="24" height="8"></rect>

      <rect x="1040" y="510" width="24" height="8"></rect><rect x="1070" y="510" width="24" height="8"></rect>
      <rect x="1100" y="510" width="24" height="8"></rect><rect x="1130" y="510" width="24" height="8"></rect>

      <rect x="1270" y="470" width="24" height="8"></rect><rect x="1300" y="470" width="24" height="8"></rect>
      <rect x="1330" y="470" width="24" height="8"></rect><rect x="1360" y="470" width="24" height="8"></rect>
    </g>
  </g>

  <!-- glow frontal -->
  <ellipse cx="800" cy="980" rx="800" ry="220" fill="url(#gGlow)" opacity="0.25"></ellipse>
</svg>
